<?xml version="1.0" encoding="utf-8"?>
<!-- Generator: Adobe Illustrator 26.4.1, SVG Export Plug-In . SVG Version: 6.00 Build 0)  -->
<svg version="1.1" id="Livello_2_00000145060937309913242110000004861210515908724890_"
	 xmlns="http://www.w3.org/2000/svg" xmlns:xlink="http://www.w3.org/1999/xlink" x="0px" y="0px" viewBox="0 0 282 464"
	 style="enable-background:new 0 0 282 464;" xml:space="preserve">
<style type="text/css">
	.st0{fill:#FFFFFF;}
</style>
<g id="Livello_1-2">
	<g>
		<g>
			<path class="st0" d="M229.9,230.6c-0.5-2-0.9-3.6-2.9-5.6c-2.1-2.1-3.8-2.5-5.6-2.9c-0.4-0.1-0.8-0.1-1.3-0.2
				c-2-0.2-5.1-0.6-7.9-3.5c-2.8-2.8-3-5.9-3.1-7.9c0-0.6-0.1-1.1-0.1-1.4c-0.2-0.8-1.2-1.8-2.7-3.3c-0.4-0.4-0.9-0.9-1.5-1.4
				c-2.4-2.4-3.5-3.5-4.8-3.7c-0.4-0.1-0.7-0.1-1.1-0.2c-2.1-0.4-4.9-0.8-7.8-3.8c-2.9-2.8-3.2-5.8-3.5-7.7
				c-0.1-0.4-0.1-0.9-0.2-1.2c-0.2-0.9-1.1-1.8-2.9-3.6l-1.1-1.1c-0.6-0.6-1.1-1.1-1.6-1.6c-1.4-1.4-2.3-2.4-3.1-2.6
				c-0.4-0.1-0.8-0.1-1.2-0.2c-2-0.3-4.7-0.7-7.6-3.5c-2.9-2.9-3.4-5.6-3.8-7.6c-0.1-0.4-0.1-0.7-0.2-1.1c-0.3-1.3-1.2-2.6-3.7-5
				c-1.4-1.4-2.3-1.5-3.9-1.8c-0.5-0.1-1-0.2-1.5-0.3c-3.1-0.7-5.6-2.7-8.4-5.5c-2.9-2.9-3.2-5.6-3.5-7.6c-0.1-0.4-0.1-0.8-0.2-1.2
				c-0.1-0.6-0.4-1.1-0.7-1.7v0.2l-0.1,18.6l-0.1,6.1l0.1,6.1v0.1l0,3.2c0.3,0.3,0.6,0.6,1,0.9c3.2,3.2,4.1,6.1,4.7,8.8
				c0.1,0.3,0.1,0.7,0.2,1c0.3,1.7,0.6,2.9,2.2,4.5c1.4,1.5,2.6,1.7,4.2,2c0.4,0.1,0.9,0.1,1.3,0.2c2.5,0.6,5.4,1.6,8.7,4.9
				c2.8,2.8,3.1,5.8,3.2,7.7c0,0.5,0.1,1,0.1,1.3c0.1,0.6,1.2,1.6,2.4,2.7c0.6,0.6,1.3,1.2,2,1.9c1.8,1.8,2.7,2,4.5,2.4l0.5,0.1
				c2.6,0.6,4.2,2.4,5.9,4.2c0.5,0.6,1.1,1.2,1.8,1.9c2.9,2.9,4.8,4.8,5.5,7.9c0.1,0.4,0.1,0.7,0.2,1c0.4,1.8,0.6,3,2.2,4.6
				c2,2,3.5,2.5,5.5,2.9c0.4,0.1,0.9,0.1,1.4,0.2c2.1,0.2,5.2,0.5,8.1,3.3c2.8,2.8,3.1,5.8,3.4,7.9l2.1-1.6l5.2-3l4.6-3.5l4.3-4.2
				l2.1-2c-0.8-1.7-1.1-3.2-1.4-4.4C230,231.2,229.9,230.9,229.9,230.6L229.9,230.6z"/>
			<path class="st0" d="M206.5,251c-0.2-1.8-0.4-2.9-1.4-4c-1.1-1.1-2.1-1.2-3.9-1.4c-0.7-0.1-1.5-0.1-2.3-0.3
				c-2.6-0.6-5.5-1.5-8.7-4.7c-3-3-3.6-5.9-4-8c-0.1-0.3-0.1-0.6-0.2-0.9c-0.3-1.1-1.1-2.1-3.7-4.6c-0.8-0.8-1.4-1.5-2-2.2
				c-1-1.1-1.9-2.1-2.4-2.2l-0.5-0.1c-2.2-0.5-4.6-1-7.8-4.2c-0.6-0.6-1.3-1.2-1.8-1.7c-1.9-1.8-3.7-3.4-4.3-6.1
				c-0.2-0.8-0.2-1.6-0.3-2.3c-0.1-1.5-0.2-2.4-1.3-3.5c-2.2-2.2-3.9-2.7-5.5-3.1c-0.3-0.1-0.7-0.1-1-0.2c-2-0.4-4.8-0.9-7.7-3.8
				c-2-2-2.9-3.9-3.4-5.6l0.1,7.1l0.1,6.2v0.1l-0.1,6.1l0.2,6.1c0,0.1,0,0.1,0,0.2l-0.3,4.9c2.6,2.7,4.1,5.2,4.8,8.3l0.1,0.5
				c0.4,1.8,0.6,2.9,2.4,4.7c1.7,1.7,2.8,2,4.5,2.3l0.7,0.1c2.7,0.6,4.3,2.4,6.2,4.4c0.4,0.5,0.9,1,1.5,1.6c2.7,2.7,4.4,4.8,5.1,8
				c0.3,1.2,0.9,2.2,3.5,4.9l0.7,0.7c2,2,3,3,4,3.2c0.4,0.1,0.8,0.1,1.2,0.2c1.6,0.2,3.8,0.6,6,2.2l3.5-1.4l5.5-2.6l5.5-2.4l5.5-2.8
				l2-0.9c-0.1-0.2-0.1-0.4-0.2-0.6C206.6,252.4,206.5,251.7,206.5,251L206.5,251z"/>
			<path class="st0" d="M266.1,177.6c-2.3-0.5-5.1-1.2-8.5-4.6c-3.3-3.3-4-6.2-4.5-8.5l-0.1-0.7c-0.4-1.9-0.7-3.3-2.5-5
				c-1-1-1.8-1.1-3.4-1.1c-0.8,0-1.6-0.1-2.5-0.3c-3-0.7-5.4-2.7-8.4-5.6c-3-3-4.6-5.6-5.3-8.5c-0.1-0.4-0.2-0.9-0.2-1.3
				c-0.1-0.8-0.3-1.5-0.6-2.2l-1.7,0h-6.1l-6.1,0.3h-0.1l-6.2,0.1h-0.2l-6.1-0.3l-6.1,0.1h-0.2l-3.2-0.2c0.4,0.9,0.6,1.9,0.8,2.7
				l0.1,0.2c0.4,1.9,0.7,3,2.6,4.9c2.2,2.2,3.4,2.6,5,2.9c0.4,0.1,0.7,0.1,1.1,0.2c2.1,0.4,5.3,0.9,8.2,3.9c3.5,3.5,4.4,7.2,4.8,9.2
				c0.1,0.5,0.2,0.9,0.3,1.4c0.2,1.5,0.4,2.5,1.8,3.9c1.5,1.5,2.5,1.7,4.1,2c0.4,0.1,0.8,0.1,1.2,0.2c2.9,0.7,5.5,2.3,8.5,5.3
				c3.1,3.1,4.8,5.7,5.4,8.5c0.1,0.6,0.2,1.2,0.3,1.8c0.2,1.6,0.3,2.5,1.6,3.7c2.4,2.4,3.8,3.4,5.1,3.7c0.4,0.1,0.7,0.1,1.1,0.2
				c2,0.3,4.6,0.8,7.5,3.7c1.8,1.8,3.1,3.3,4.1,4.9l1.5-2.8l3.1-5l2.2-5.5l2.3-5.6l1.8-5.7l0.1-0.4c-0.7-0.2-1.4-0.4-2.2-0.6
				L266.1,177.6L266.1,177.6z"/>
			<path class="st0" d="M271.4,140.2l-6.1-0.4l-6.1,0.2h-0.1l-6.2-0.1l-6.2-0.2l-6.1,0.1H237c0.1,0.4,0.1,0.7,0.2,1
				c0.1,0.3,0.1,0.7,0.2,1c0.3,1.2,0.9,2.6,3.5,5.2c2.4,2.4,3.9,3.5,5.1,3.8c0.3,0.1,0.8,0.1,1.4,0.1c2,0.1,5,0.3,7.8,3.1
				c3.1,3.1,3.8,6.1,4.2,8.3l0.1,0.6c0.5,2,0.8,3.3,2.7,5.3c2,2,3.4,2.4,5.3,2.8l0.3,0.1c0.7,0.2,1.6,0.4,2.5,0.7l1.3-4.8l1.4-5.8
				l1-5.8l0.5-5.9l0.3-6.1l0.1-3.5l-3.2,0.3C271.6,140.2,271.5,140.2,271.4,140.2L271.4,140.2z"/>
			<path class="st0" d="M252.6,208.1c-0.3-1.3-1.3-2.6-3.7-5c-1.4-1.4-2.3-1.5-3.9-1.8c-0.5-0.1-1-0.2-1.5-0.3
				c-3.1-0.7-5.6-2.7-8.4-5.5c-2.9-2.9-3.2-5.6-3.5-7.6c-0.1-0.4-0.1-0.8-0.2-1.2c-0.4-1.5-1.4-3.1-3.6-5.3
				c-2.7-2.7-4.2-3.3-5.3-3.5c-0.3-0.1-0.6-0.1-0.9-0.2c-1.9-0.4-4.6-0.9-7.6-3.8c-2.9-2.9-3.4-5.6-3.7-7.5
				c-0.1-0.4-0.1-0.7-0.2-1.1c-0.4-2-1-3.9-3-5.9c-1.4-1.4-2.9-1.7-4.6-2c-0.5-0.1-1-0.2-1.4-0.3c-2.8-0.6-5.2-1.7-8.3-4.7
				c-3.3-3.3-3.9-5.9-4.4-8.1l-0.1-0.2c-0.4-1.5-0.9-2.8-2.2-4.4l-1.1,0l-6.1,0.3h-0.2l-6.2-0.2l-6.1-0.1l-6.1,0l-6.1,0.2l-4.1,0.2
				c0.7,1.1,1.1,2.3,1.4,3.5c0.1,0.6,0.2,1.2,0.3,1.8c0.2,1.5,0.3,2.5,1.6,3.7c2.4,2.4,3.8,3.4,5.1,3.7c0.4,0.1,0.7,0.1,1.1,0.2
				c1.9,0.3,4.6,0.8,7.5,3.7c2.9,2.9,4.8,5.2,5.5,8.3c0.1,0.4,0.2,0.9,0.3,1.4c0.3,1.6,0.5,2.6,1.9,4.1c1.3,1.3,2.2,1.4,3.8,1.6
				c0.6,0.1,1.2,0.2,1.7,0.3c2.7,0.6,4.4,2.4,6.4,4.5c0.4,0.5,0.9,1,1.4,1.5l1.1,1.1c2.3,2.3,4.1,4.1,4.8,6.9
				c0.1,0.6,0.2,1.2,0.3,1.9c0.2,1.6,0.3,2.6,1.6,3.8c1.4,1.4,2.6,1.6,4.2,1.9c0.5,0.1,1,0.2,1.4,0.3c3.2,0.8,5.5,3,8,5.5
				c0.5,0.5,0.9,0.9,1.4,1.3c2.1,2.1,4,3.9,4.6,6.6c0.2,0.9,0.2,1.8,0.3,2.6c0.1,1.7,0.1,2.5,1.1,3.5c1.2,1.2,2.4,1.4,4.1,1.6
				c0.7,0.1,1.3,0.2,1.9,0.3c2.1,0.5,5.4,1.2,8.8,4.7c3.2,3.2,4.1,6.1,4.7,8.8c0.1,0.3,0.1,0.7,0.2,1c0,0.2,0.1,0.4,0.1,0.6l1.4-1.4
				l4.3-4.1l3.8-4.6l3.8-4.7l3.3-4.7c-0.2-0.8-0.4-1.5-0.5-2.2C252.7,208.9,252.7,208.5,252.6,208.1L252.6,208.1z"/>
			<path class="st0" d="M136,219.4l0.1-1.6l-0.2-6.1v-0.1l0.1-6.1l-0.1-6.1l-0.3-12.4v-0.1l0.1-4.7l0.1-1.5l0.1-5.9v-0.2l-0.1-6.1
				v-0.1l0.1-6.2l0.1-18.5l-0.2-3.9l-3.4,0.1l-6.1,0.3h-0.2l-6.1-0.3l-6.1,0.2c-0.1,0-0.2,0-0.2,0l-6-0.4l-6,0.4h-0.1l-6.2,0.2H95
				l-6.2-0.2h-0.1l-6-0.4l-6,0.3l-6.2,0.3h-0.2l-6.1-0.3l-6.1-0.1l-6.1,0l-6.2,0.1h-0.1l-6.1-0.1l-6.1,0.1l-6.2,0H27l-6.2-0.1
				l-6.2-0.2l-6,0.1L5,140.1l0.2,3.4l0,6l0.9,5.9l0.7,5.9l1.7,6l1,5.9l1.5,5.6l2.6,5.6l2,5.6l2.4,5.4l3.1,5.4l2.5,5.4l3.2,4.9
				l3.6,4.9l3.4,4.9l4,4.5l3.9,4.6l4.3,4.1l4.5,4.1l4.5,3.9l9.5,7.2l5.3,2.8l5.3,3l5.2,3l5.6,2.3l5.4,2.5l5.7,1.6l5.8,1.8l5.8,1.6
				l5.8,1.5l5.8,1l6,0.2l6.2,0.4l3.2,0.4l-0.1-3.6v-0.1l-0.1-6.2c0-0.1,0-0.1,0-0.2l0.4-6l-0.4-6c0-0.1,0-0.3,0-0.4l0.5-6l-0.4-6
				v-0.2l0.1-6.2l0-3v-3.3L136,219.4L136,219.4z M109.1,214.3l-1.2,5.1l-1.5,3.3l-2.2,2.9l-2.9,2.1l-3.3,1.4l-3.6,0.5h-3.6L87,230
				l-3.6,0l-3.6-0.2l-3.7,0.1l-3.7,0.1l-3.7-0.2L65,230l-4.2-0.8l-3.7-2.1l-3.2-2.8l-1.8-2.9l-1.1-3.2l-0.4-3.3l-0.1-3.9l-0.2-3.9
				l-0.2-3.9l0.4-3.9l-0.1-3.9l-0.2-3.9l0.1-1.2l0.8-4.8l1.6-4.6l0.3,0l0.3-0.3l-0.2-0.2l-0.2-5l2-3.1l0.1-4.1l-2-4.2l0.5-4.8l2.7-3
				l4-1.1l3.9,0.1H68l3.9,0.1l3.9,0.3l3.9-0.2l3.9,0.2l3.9-0.3l3.9,0l3.9,0.4l3.9-0.4l0.1,0.4l3.9,0.6l2.4,3l0.8,3.3l-0.2,3.4
				l-1.9,3l-0.8,1.3l0.4,1.6l2.9,4l-0.1,4.4l0,1.1l1.7,3l0.5,3.4l0.4,3.4l-0.1,3.7l0.1,3.8l0.2,3.7l-0.2,3.7l-0.1,4.1L109.1,214.3
				L109.1,214.3z"/>
			<path class="st0" d="M92.8,86.5c0-0.4,0-0.7,0-1.1c0-1,0.1-1.7-0.1-2.3c-0.1-0.4-0.5-1-0.9-1.6c-0.3-0.4-0.6-0.8-0.8-1.3
				c-0.3-0.5-0.5-1-0.7-1.4c-0.3-0.6-0.6-1.2-0.9-1.5c-0.6-0.6-1.5-1.1-2.5-1.7l-0.3-0.2c-0.6-0.3-1.4-0.6-2.4-0.8l-0.8-0.2
				c-0.4-0.1-0.7-0.2-1.1-0.3c-0.8-0.2-1.6-0.5-2.2-0.5c-1,0-2.1,0.3-3.2,0.6c-1.2,0.3-2.2,0.7-3.1,1.3c-0.5,0.3-1,0.5-1.4,0.7
				c-0.7,0.3-1.3,0.6-1.6,0.9c-0.7,0.7-1.4,1.7-2.1,2.8c-0.3,0.5-0.4,1.3-0.7,2.1c-0.1,0.4-0.2,0.8-0.3,1.2
				c-0.3,1.1-0.4,2.2-0.4,3.3c0,1.2,0,2.4,0.2,3.3c0.2,0.9,0.8,1.8,1.3,2.8l0.4,0.6c0.5,0.9,1,1.8,1.6,2.4c0.8,0.8,1.8,1.4,2.7,2
				c0.9,0.6,2,1,3.1,1.3c0.8,0.2,1.9,0.2,3.1,0.2h0.6c1.2,0,2.2,0,2.9-0.2c1.1-0.3,2.3-0.6,3.2-1.1c0.9-0.5,2-1.2,2.8-2
				c0.8-0.8,1.5-1.7,2.1-2.7c0.5-0.8,0.9-1.9,1.2-3.2l0,0c0.1-0.4,0.1-1.2,0-1.9C92.8,87.5,92.8,87,92.8,86.5L92.8,86.5z"/>
			<path class="st0" d="M128.6,73.6c-1.8-0.9-3.6-1.8-7.2-3.6c-3.6-1.8-5.3-2.7-7.1-3.5c-1.8-0.9-3.6-1.7-7.1-3.5
				c-3.5-1.8-5.4-2.6-7.2-3.3c-1.8-0.8-3.7-1.6-7.2-3.4c-3.6-1.8-5.4-2.7-7.2-3.5C84.1,52,82.6,51.3,80,50c-2.3,1.1-3.7,1.8-5.1,2.5
				c-1.8,0.9-3.6,1.7-7.1,3.5c-3.5,1.8-5.3,2.8-7,3.8c-1.7,1-3.5,2-7,3.8c-3.6,1.8-5.5,2.6-7.3,3.3c-1.8,0.7-3.7,1.5-7.2,3.2
				c-3.5,1.7-5.2,2.6-7,3.5c-1.8,0.9-3.6,1.8-7.2,3.6c-3.5,1.8-5.3,2.7-7,3.7c-0.8,0.4-1.7,0.9-2.7,1.4l-1.9,4.9l-1.9,5.7l-2,5.7
				l-1.5,5.8l-1.2,5.8l-0.6,5.9l-0.5,6.3l-1,5.8l0.1,3.4l3.5-0.3h0.2l6.2-0.1h0.1l6.2,0.2l6.1,0.1l6.2,0l6.1-0.1h0.1l6.1,0.1
				l6.1-0.1h0.1l6.2,0l6.2,0.1h0.1l6.1,0.3l6.1-0.3l6.2-0.3h0.3l6.1,0.4l6.1,0.2l6.1-0.2l6.1-0.4c0.1,0,0.2,0,0.3,0l6.1,0.4l6.1-0.2
				h0.2l6.1,0.3l6.1-0.3h0.1l3.4-0.1l0.1-3.4v-0.1l0.2-6.1l-0.1-6.1v-0.1l0.1-6.1l-0.1-6.1c0-0.1,0-0.2,0-0.2l0.4-6.1l0-6.1
				l-0.2-6.1c0-0.1,0-0.1,0-0.2l0.1-6.1l-0.1-1.2c-0.1-0.1-0.2-0.1-0.3-0.1C132.2,75.3,130.4,74.4,128.6,73.6L128.6,73.6z
				 M99.1,91.6c-0.5,1.9-1.1,3.4-1.9,4.8c-0.9,1.5-1.9,2.9-3.1,4.1c-1.3,1.3-2.9,2.3-4.1,3c-1.6,0.9-3.2,1.4-4.8,1.8
				c-1.5,0.4-2.9,0.4-4.3,0.4h-1c-1.5,0-3.1,0-4.8-0.4c-1.7-0.4-3.2-1.1-4.7-1.9c-1.2-0.7-2.8-1.7-4.1-3c-1.2-1.2-2-2.6-2.7-3.8
				l-0.3-0.6c-0.7-1.2-1.5-2.7-2-4.4c-0.5-1.7-0.5-3.4-0.5-5c0-1.7,0.2-3.4,0.7-5c0.1-0.3,0.2-0.6,0.2-0.9c0.3-1.3,0.6-2.6,1.4-3.9
				c0.9-1.6,2-3,3.1-4.1c1.1-1.1,2.3-1.7,3.3-2.2c0.4-0.2,0.7-0.3,1-0.5c1.4-0.8,2.9-1.4,4.6-1.9c1.5-0.4,3.1-0.8,4.9-0.8
				c1.6,0,2.9,0.4,4,0.7c0.3,0.1,0.6,0.2,0.9,0.2l0.7,0.2c1.2,0.3,2.7,0.7,4,1.5l0.3,0.2c1.2,0.7,2.6,1.5,3.8,2.7
				c1.1,1.1,1.6,2.2,2.1,3.3c0.2,0.4,0.3,0.7,0.5,1c0.2,0.3,0.4,0.6,0.6,0.9c0.7,1,1.4,2.1,1.8,3.6c0.4,1.5,0.3,2.8,0.3,4.1
				c0,0.3,0,0.6,0,1c0,0.3,0,0.7,0,1.1C99.5,88.8,99.5,90.2,99.1,91.6L99.1,91.6z"/>
			<polygon class="st0" points="105.2,190.6 104.8,189.5 104.5,186.3 102.4,182.2 98.4,179.8 93.1,180.4 89.8,182.2 85.9,182.5 
				82.6,180.4 79.7,179.5 76.9,180.6 73.3,182.2 69.4,182.1 65.7,180.6 61.6,179.8 58.2,181 55.8,183.5 54.6,186.9 54.3,191.4 
				54.1,194.6 54.2,197.8 54.3,201.3 54.1,204.8 54.4,208.4 54.3,211.9 54.5,215.2 55,218.4 56.1,221.5 57.9,222.9 61.4,225.2 
				65.5,225.7 65.6,225.8 69.3,226.1 73.1,225.7 76.9,226 80.6,225.8 85,226 89.4,225.9 93.7,225.6 98,224.7 101.7,222.3 
				103.6,219.8 104.7,216.7 105,215.3 105.1,214.7 105,210.7 104.9,206.6 105.1,202.6 104.9,198.6 105,194.6 			"/>
			<path class="st0" d="M28.9,67.1c1.8-0.9,3.6-1.7,7.1-3.5c3.5-1.7,5.2-2.6,7-3.5c1.8-0.9,3.6-1.8,7.2-3.6c3.6-1.8,5.5-2.6,7.3-3.3
				c1.8-0.7,3.7-1.5,7.2-3.3c3.5-1.8,5.3-2.6,7.1-3.5c1.6-0.8,3.3-1.6,6.2-3.1c1.1-1.4,2.6-1.8,4-1l0.1,0c0.5,0.1,0.9,0.3,1.2,0.6
				c2.7,1.3,4.3,2,5.8,2.7c1.8,0.8,3.7,1.6,7.2,3.4c3.6,1.8,5.3,2.8,7,3.9c1.7,1,3.4,2,6.9,3.8c3.6,1.8,5.3,2.8,7,3.8
				c1.7,1,3.4,2,7,3.7c3.5,1.8,5.4,2.5,7.2,3.2c1.2,0.5,2.4,1,4.1,1.7l-0.1-2.9v-0.3l0.5-6l0-6l-0.5-6.1c0-0.1,0-0.2,0-0.3l0.3-6.2
				l0.4-6.1l-0.3-6c0,0,0,0,0,0l-0.1-6.2v-0.1l0.1-6.2l0.2-6.1l-0.5-6c0-0.1,0-0.2,0-0.4l0.2-3.3l-3.4-0.1l-5.9,0.4l-6.1,0.9
				l-5.8,0.5l-5.8,1.6l-5.8,1.3L97,7.4l-5.8,1.4l-5.3,2.3l-5.5,3L75,16.5l-5.1,3l-5.1,3.3L59.8,26l-4.7,3.7l-4.6,3.9l-4.5,4.1
				l-4.3,4.1l-3.7,4.7l-3.9,4.7l-3.9,4.5l-3.2,5.2l-3.6,4.7l-2.7,5.2l-0.2,0.5c0.4-0.2,0.7-0.4,1.1-0.6
				C25.3,68.8,27.1,67.9,28.9,67.1L28.9,67.1z"/>
			<polygon class="st0" points="58.6,168.1 59.7,168.3 63.6,168.1 67.5,167.9 71.4,168.2 75.4,168.1 79.3,168 83.2,168.1 
				87.2,167.8 91.1,167.9 95,167.9 100.3,168.1 102.1,167.4 102.4,163.8 102,160.3 98.8,159.3 98.8,159.2 94.9,158.9 91,159.3 
				87.1,158.9 83.1,159.2 79.2,158.9 75.5,159.1 71.8,159.4 68.1,159.4 64.4,159.2 60.7,159.1 58.8,159.4 57.1,161.4 57.1,162.3 
				57.3,165.3 			"/>
			<polygon class="st0" points="63.2,175.8 66.3,176.1 68.9,177.9 74.1,177.7 77.7,175.9 81.6,176 85.3,177.4 87.9,178.4 
				90.6,177.5 94.2,175.8 94.7,176.1 99.4,176.3 101.8,177.6 103.1,177.8 103,177.6 101.6,174.5 98.4,173.5 94.1,173.2 89.7,173.4 
				85.3,173.2 81.2,173.3 77.2,173.7 73.1,173.7 69,173.5 64.9,173.3 60.8,173.4 57.2,176 56.1,177.9 58,177.2 			"/>
			<path class="st0" d="M168.3,262.3c-2.9-2.9-4.6-5-5.3-8.1c-0.3-1.3-0.8-2.3-3.3-4.7c-0.6-0.6-1.1-1.2-1.6-1.7
				c-1.4-1.5-2.2-2.3-2.9-2.5l-0.6-0.1c-2.1-0.4-4.7-1-7.8-4.1c-1.2-1.2-2-2.4-2.6-3.4l0.3,4.7c0,0.1,0,0.3,0,0.4l-0.5,6l0.4,6
				c0,0.1,0,0.2,0,0.4l-0.4,6.1l0.1,6l0.1,4l3.4-0.1l6-0.5l6-0.7l6-1l5.8-1l2.4-0.8c-1.7-1-3.1-2.4-4.8-4.1L168.3,262.3L168.3,262.3
				z"/>
			<path class="st0" d="M187.6,39.4l0.1,0.4c0.4,2.4,0.9,4.8,1.5,7.2c0.9,3.9,3.3,6.7,7.8,9.1C195.2,50.1,191.2,43,187.6,39.4
				C187.6,39.4,187.6,39.4,187.6,39.4L187.6,39.4z"/>
			<path class="st0" d="M195.4,79.1c-2.2-1.4-3.2-3.7-3.9-5.7c-0.4-1.1-0.9-2.2-1.3-3.3l-0.3-0.8c-1.6,0.1-2.4,1.3-2.6,2
				c-0.4,1.1-0.9,3.1,0.3,5c2,3.1,4.5,6.5,8.2,8.6c4.8,2.7,10.1,4.7,15.6,5.8c4.1,0.8,6.7-0.9,7.7-5.1c0.3-1.5,0.3-3-0.3-4.8
				c-2.5,1.3-5.2,2.1-8.2,2.4C205.5,83.9,200.7,82.6,195.4,79.1L195.4,79.1z"/>
			<path class="st0" d="M210.9,73.9c-1.5,1.3-3.4,1.8-5.6,1.3c-3.1-0.7-5.6-2.4-7.6-5.4c-0.4-0.7-0.8-1.3-1.1-2
				c-0.1-0.2-0.2-0.4-0.3-0.6c-0.2-0.1-0.5-0.2-0.8-0.2c-0.3,0-0.7,0.1-0.9,0.4c-0.6,0.9-1.3,2.3-0.6,4.1c1,2.7,2.6,4.7,4.7,6
				c4.7,2.9,10,3.5,16.1,1.7c0.6-0.2,1.2-0.5,1.9-1.1c1.2-1.1,1.4-2.1,0.6-3.6c-0.9-1.6-1.9-2.6-3.4-3.3L213,72
				C212.3,72.7,211.6,73.3,210.9,73.9L210.9,73.9z"/>
			<path class="st0" d="M201,104.6c0,0.5,0.1,1,0.1,1.5c0.4-0.9,1.1-0.9,1.6-1c0.3,0,0.5-0.1,0.7-0.2l1-3.5c-2-1.6-3.4-2.4-5.4-3
				C200,100.2,200.9,102.2,201,104.6L201,104.6z"/>
			<path class="st0" d="M208.2,93.3c-4.9-1.3-9.7-3.3-14.5-6.1c-3.2-1.8-5.6-4.1-7.4-6.9c-0.6-1-1.3-2-2-3c-0.2-0.3-0.4-0.6-0.6-0.9
				c-0.5,0.5-0.6,1.1-0.7,2c0,0.3-0.1,0.5-0.1,0.8c-0.2,1.2,0,2.4,0.7,3.4c0.5,0.7,1,1.5,1.7,2.1c4.8,4.3,10.4,9.2,17.5,11.5
				c0.9,0.3,1.9,0.6,2.9,0.9c0.4,0.1,0.7,0.2,1.1,0.3l4.1-3.2c-0.1-0.1-0.2-0.1-0.4-0.1C209.7,93.8,208.9,93.5,208.2,93.3
				L208.2,93.3z"/>
			<path class="st0" d="M222.5,50.3c-0.4-0.2-0.9-0.1-1.6,0.4c-0.6,0.4-1.3,0.8-1.9,1.2c-2.4,1.5-5,3.1-7.3,4.9
				c-1.7,1.3-3.2,2.8-4.6,4.3c-0.4,0.4-0.8,0.9-1.2,1.3c-0.3,0.3-0.5,0.7-0.8,1.2c0,0,0,0,0,0.1c1.9,0.7,3.7,0.4,5.6-0.1
				c0.5-0.1,1.1-0.2,1.6-0.3c0.6-0.1,1.4-0.7,2.1-1.7c2.5-3.2,5-6.6,7.4-9.9l0.9-1.2C222.5,50.4,222.5,50.3,222.5,50.3
				C222.5,50.3,222.5,50.3,222.5,50.3L222.5,50.3z"/>
			<path class="st0" d="M274.2,115.5l-1.3-6.1l-0.6-5.8l-1.8-5.6l-1.8-5.8l-2.1-5.8l-1.8-5.6l-3-5.3l-2.5-5.4l-3.2-5.2l-2.9-5.2
				l-3.3-4.9l-3.6-4.8l-3.9-4.4l-4.4-4.4l-3.9-4.5l-4.3-3.9l-5-3.6l-4.6-3.9l-4.9-3.4l-5-3.2l-5.3-2.8l-5.4-2.6l-5.6-2.4l-5.5-2.6
				l-5.4-2.1l-5.9-1.2l-6.1-1.5l-5.6-1.7l-5.9-0.4l-6.1-0.6L147.8,0l-3.5,0.1l-0.2,3.4l0.5,6v0.3l-0.2,6.2l-0.1,6.1l0.1,6.1l0.3,6.1
				c0,0.1,0,0.2,0,0.3l-0.4,6.2l-0.3,6l0.4,6c0,0.1,0,0.1,0,0.2l0,6.2c0,0.1,0,0.2,0,0.2l-0.5,6l0.6,12.2c0,0.1,0,0.1,0,0.2
				l-0.2,6.1l0.2,6.1v0.1l0,6.2v0.2l-0.4,6.1l0.1,6.1v0.1l-0.1,6.2l0.1,6.2v0.1l-0.2,6.2l-0.1,3.4l3.9,0.3l6.1-0.2l6.2-0.2h0.1
				l6.2,0h0.1l6.2,0.1l3.3,0.1l2.8,0.1l6.1-0.3h0.1l5.6,0h0.7l6.1,0.3l6.1-0.1h0.1l6.1,0.3l6.1-0.1l6.1-0.3h6.3l6.2-0.1h6.2l6.1-0.1
				h0.1l6.2,0.2l6.1,0.1l6.1-0.2h0.2l6,0.4l3.6-0.3l0-3.4l-0.4-5.9L274.2,115.5L274.2,115.5z M226.6,49.6c-0.2,0.4-0.5,0.8-0.7,1.1
				c-0.5,0.8-0.9,1.5-1.4,2.2c-2.1,2.8-4.2,5.6-6.2,8.2c-2.3,3.1-2.8,3.6-5.2,5c2.7,1.8,4.7,4.2,6.3,6.3c2.3,3,3.3,6.4,3,10.5
				c-0.1,0.9-0.2,1.8-0.3,2.6c0,0.4-0.1,0.8-0.1,1.1c-0.3,2.8-1.7,5.2-4.2,7c-0.6,0.5-1.3,0.9-1.9,1.3c-0.6,0.4-1.2,0.8-1.8,1.2
				c-0.3,0.2-0.7,0.4-1,0.7c-0.8,0.5-1.7,1-1.9,1.6c-0.4,1.3-1.4,1.8-2.1,2.3c-0.4,0.3-0.9,0.5-1.1,0.8c-0.3,0.4-0.5,0.8-0.6,1.2
				c-0.2,1.1-0.4,2.3-0.5,3.5c0,1.1,0,2.2,0,3.3c0,0.9,0.1,1.9,0,2.8c0,1.7-0.6,3.1-1.6,4.2c-1,1.1-2.3,2.1-4.3,2.1
				c-0.1,0-0.2,0-0.4,0l-0.4,0l-0.2-0.3c-1.1-2.4-1.8-4.4-1.9-6.5l-0.1-1.4c-0.2-2.2-0.4-4.5-0.7-6.7c-0.4-3.5-2-5.3-5.6-6.3
				l-0.3-0.1c-1.2-0.4-2.5-0.7-3.7-1.4c-8.2-4.6-11.2-14.5-6.7-22.6l0,0c2-3.6,4.6-6.1,7.9-7.5c3.1-1.3,6.3-2.6,10.2-2.7
				c0.3-1.7-0.4-2.6-1.6-3.3c-0.6-0.3-1.2-0.7-1.7-1c-1.3-0.8-2.6-1.6-3.9-2.4c-2.5-1.7-4.3-4-5.4-7.1c-1.2-3.3-1.8-6.6-2.2-10.6
				c-0.1-0.7,0.1-1.3,0.2-1.9c0.2-0.6,0.6-1,1.3-1.3c0.6-0.2,1.3-0.2,1.8,0.1c0.5,0.3,1,0.7,1.4,1.2c2.6,3,5.3,6.4,7.1,10.3
				c0.8,1.7,1.6,3.5,2.3,5.2c0.8,1.9,1.7,3.8,2.5,5.7c0.1,0.2,0.2,0.3,0.3,0.4c0.1-0.2,0.1-0.5,0.1-0.8c0-0.2,0.1-0.4,0.1-0.7
				c0.2-0.9,0.4-1.8,0.6-2.6c0.7-2.8,1.4-5.7,2.2-8.5c0.6-2.3,1.7-4.2,3.2-5.6c1.4-1.4,3.4-3,6.5-2.5l0.4,0.1l0.1,0.4
				c0.6,2,0,3.6-0.5,5.1c-0.3,0.8-0.6,1.6-0.6,2.5c-0.1,1-0.3,2-0.5,2.9c-0.3,1.2-0.6,2.5-0.6,3.9c1.1-0.5,2-1.2,2.9-1.8
				c0.6-0.4,1.3-0.9,2-1.3l0.3-0.2c1.1-0.6,2.3-1.3,3.5-1.7c1.9-0.7,3.7-0.4,5.4,0.9l0.5,0.4L226.6,49.6L226.6,49.6z"/>
			<path class="st0" d="M201.2,107.5L201.2,107.5c0,0.7,0,1.5,0.1,2.2c0.1,0.6,0.1,1.3,0.1,1.9c0.6,0.6,1.2,0.7,1.9,0.3
				C203.7,109.8,203,108.3,201.2,107.5L201.2,107.5z"/>
			<path class="st0" d="M208.2,54.5c0.5-0.9,0.9-2,1.2-3.3c0.6-2.6,1.2-5.3,1.7-8l0.3-1.7c0.1-0.3,0.1-0.6,0.1-1
				c-0.4,0.1-0.7,0.2-0.9,0.3c-1.2,0.8-2,1.9-2.5,3.2c-2,5.3-3.1,9.8-3.6,14.1C206.3,57.5,207.4,55.9,208.2,54.5L208.2,54.5z"/>
			<path class="st0" d="M185.9,90.3l0.2,0.2c1.2,1.2,2.6,2.3,4.6,3.2c-1.8-1.9-3.9-3.5-5.9-4.6C185.1,89.4,185.5,89.8,185.9,90.3z"
				/>
			<path class="st0" d="M203,70.9c1.1,0.8,2.4,1.2,3.8,1.1c1.5,0,2.6-0.7,3.4-2.1c0.2-0.4,0.3-0.9,0.1-1.2c-0.1-0.3-0.3-0.4-0.6-0.5
				c-3.6-1-6.6-1.4-9.8-1C200.6,68.9,201.6,69.9,203,70.9L203,70.9z"/>
		</g>
		<g>
			<path class="st0" d="M5.3,323H5.1l-0.2,0.1c-2.1,1.1-3.1,2-3.1,3v0.8c0,0.6,0,1.7,0.6,2.3l-1.5,47.6c0,1,0.1,3.3,0.5,7
				c-0.4,0.4-0.7,1.1-1.1,2.4l0,0.2c0,1.4,0.6,2.2,1.3,2.6c0,0.8,0.1,2.5,0.3,5.1c0,0.8-0.1,2.2-0.3,4.1l0.9,9.8
				c-0.2,0.5-0.2,1.2-0.2,2c0.3,3,0.5,4.9,0.6,5.6v4.1l0.1,0.2c1.2,1.6,2.6,2.4,4.1,2.4h1.3l0.1,0c1.7-0.6,3-1.9,4-4l0.1-1.3
				c0-1.5-0.1-3-1-3.7c-0.1-1.6-0.4-6.9-1-16.1c0-0.1,0-0.4,0.3-2.6v-0.1v-0.1c-0.2-1.4-0.3-3-0.3-5c0.5,0.1,1,0.1,1.7,0l0.4-0.1
				c4.8-2,8.6-4.9,11.1-8.5l0.1-0.1c4.8-13.7,7.3-26.4,7.3-37.9c-0.2-2.5-0.7-4.8-1.5-6.7C25.4,327.4,17.2,323,5.3,323L5.3,323z
				 M11.3,330.3c0.6,0.1,1.4,0.3,2.3,0.6c5.5,3.3,8.4,7,8.4,11c0,1-0.1,3.2-0.3,6.4c-2.8,24.3-6,30.8-8.2,32l-0.2,0.1
				c-1.2,1.1-2.3,1.8-3.2,2.2c-0.1-1.3-0.1-3.2-0.3-5.7L11.3,330.3L11.3,330.3z"/>
			<path class="st0" d="M73.5,336.7L73.5,336.7c-2.4-5.7-5.7-9.4-9.8-11l-1.2-0.1c-3.7,0-6.3,2.7-7.6,8.1
				c-2.5,14.6-3.8,28.6-3.9,41.6c0,2.6,0.1,5.2,0.3,7.6c0,3.8-0.8,15.3-2.5,34.3c0,3.3,2.2,5.1,6.4,5.1h0.2l0.2-0.1
				c2.2-1.1,3.3-2.1,3.3-3.2c0-0.8-0.2-1.6-0.7-2.2l2.2-24.6v-10.1c1.1-0.2,4.5-0.6,14.7-1.4c1.6,9.7,2.5,15.2,3,16.5
				c1.8,13.3,3.3,20.8,4.7,23l0.2,0.4h0.5c3.5,0,5.6-0.8,6.4-2.5l0.1-0.3c0-6.2-1-13.3-2.9-21.1C84.1,372.5,79.6,352.3,73.5,336.7
				L73.5,336.7z M74.3,373.6c-4.6,0.1-9.3,0.6-14,1.6c0-1.5,0.1-2.2,0.1-2.6h0.2v-0.7c0-14.6,1.1-26.3,3.2-34.9
				C70.2,355.2,73.7,367.5,74.3,373.6L74.3,373.6z"/>
			<path class="st0" d="M140.7,377.9c-12.9-9.7-16.4-13-17.1-14.1c-2.9-6.4-4.4-11.1-4.4-13.8c0-4.6,0.8-8.8,2.4-12.5
				c1.6-2.7,4.5-4,9-4h4.3l0.2-0.1c2.3-1.3,3.3-2.3,3.3-3.2V329l-2.3-2.4h-0.4c-10.6,0-17.8,2.2-21.4,6.6
				c-2.8,4.8-4.2,10.3-4.2,16.5c0.2,1.4,0.3,2.6,0.3,3.5l0,0.1c2.1,8,4.2,12.9,6.3,14.8c3,3.5,7.5,7.2,13.3,10.9
				c6.9,6.1,10.4,12.4,10.4,18.7c0,4.9-1,9-2.9,12.1l-0.1,0.1v0.2c0,1.2-1.5,3.1-8.7,5.4c-3.8,0.3-5.7,1.4-5.7,3.1v1l0.1,0.3
				c0.9,1.7,2.7,2.6,5.1,2.6c1.7,0,3.6-0.5,5.8-1.5c6-1.8,9.8-4.2,11.2-7c2.7-5,4.1-10.2,4.1-15.4c0-6.7-2.9-13.5-8.7-20.4
				L140.7,377.9L140.7,377.9z"/>
			<path class="st0" d="M176.4,326h-1.5l-0.2,0.1c-2.1,1-3.1,2.1-3.1,3.2c0.6,3.3,1,7.1,1,11.2v7.5c-1.3,11.8-2,33.7-2,65
				c0,4,0.4,9.4,4.2,9.4h1.3c1.6,0,3.5-0.7,4.2-3.9l0-0.1l0-0.1c-0.6-2-0.6-2.4-0.6-2.5V398c0-5.6,0.1-13.2,0.3-22.6v-0.1l0-0.1
				c-0.2-0.7-0.3-1.3-0.3-1.8c1.3-14.7,2-24,2-27.5v-3.5C181.5,331.1,180,326,176.4,326L176.4,326z"/>
			<path class="st0" d="M246.2,359v-7.7c0-5.1,0.3-13.1,1-23.8l0-0.4l-4.1-1.8h-0.2c-3.9,0-5,1.9-5.2,3.5v19.3c0,2-0.2,4.9-0.6,8.5
				c0,1.7,0,2.8,0.1,3.2c-0.3,4.7-0.4,7.5-0.4,8.3c0,2.2,0.4,10.5,1.2,24.9c-5.9-15.3-9.3-25.3-10.3-29.9
				c-13.6-38.6-16.2-38.6-17.6-38.6c-2.6,0-4.3,1.2-4.8,3.5v47.1c0,12.4,0.6,26.7,1.9,42.4c0,2.3,1.7,3.5,4.7,3.5h5l-0.1-0.8
				c-1.9-14-2.9-31.2-2.9-51.3c0-3.4,0.2-9.1,0.5-17l3.2,9c21.8,61.7,24.9,61.7,26.5,61.7h0.2l3.9-1.6l0-0.5
				C246.9,395.4,246.2,374.7,246.2,359L246.2,359z"/>
			<path class="st0" d="M282,342.4c0-11.4-1.6-16.4-5.2-16.4h-1.5l-0.2,0.1c-2.1,1-3.1,2.1-3.1,3.2c0.6,3.3,1,7.1,1,11.2v7.5
				c-1.3,11.8-2,33.7-2,65c0,4,0.4,9.4,4.2,9.4h1.3c1.5,0,3.5-0.7,4.2-3.9l0-0.1l0-0.1c-0.6-2-0.6-2.4-0.6-2.5V398
				c0-5.6,0.1-13.2,0.3-22.6v-0.1l0-0.1c-0.2-0.7-0.3-1.3-0.3-1.8c1.3-14.7,2-24,2-27.5L282,342.4L282,342.4z"/>
		</g>
		<g>
			<path class="st0" d="M9,447c-0.4-1-0.9-1.5-1.8-1.5S5.8,446,5.5,447l-5.3,14.8c-0.1,0.3-0.2,0.6-0.2,0.9c0,0.7,0.5,1.2,1.3,1.2
				c0.7,0,1.1-0.4,1.4-1.2l1.4-4.2h6.3l1.4,4.2c0.3,0.8,0.7,1.2,1.4,1.2c0.8,0,1.3-0.5,1.3-1.2c0-0.2-0.1-0.5-0.2-0.9L9,447L9,447z
				 M9.6,456.1H4.9l2.4-7.1L9.6,456.1L9.6,456.1z"/>
			<path class="st0" d="M31.1,461.2h-8.2l8-11.8c1-1.5,1.3-1.9,1.3-2.4c0-0.8-0.5-1.3-1.4-1.3H21c-0.8,0-1.4,0.5-1.4,1.2
				s0.5,1.2,1.3,1.2h7.8l-8.1,11.8c-1.1,1.5-1.2,1.9-1.2,2.3c0,0.8,0.6,1.4,1.4,1.4h10.2c0.8,0,1.4-0.5,1.4-1.2
				S31.9,461.2,31.1,461.2L31.1,461.2z"/>
			<path class="st0" d="M40,445.5c-0.8,0-1.3,0.6-1.3,1.4v15.3c0,0.9,0.5,1.4,1.3,1.4s1.3-0.6,1.3-1.4V447
				C41.3,446.1,40.8,445.5,40,445.5z"/>
			<path class="st0" d="M58.3,448.1c0.8,0,1.3-0.5,1.3-1.2s-0.5-1.2-1.3-1.2h-7.5c-1.6,0-2.3,0.6-2.3,2.1v13.7
				c0,1.5,0.7,2.1,2.3,2.1h7.4c0.8,0,1.4-0.5,1.4-1.2s-0.5-1.2-1.3-1.2h-7.1v-5.5h6.6c0.8,0,1.3-0.5,1.3-1.2s-0.5-1.2-1.3-1.2h-6.6
				v-5.2L58.3,448.1L58.3,448.1z"/>
			<path class="st0" d="M78.4,445.5c-0.8,0-1.3,0.5-1.3,1.4V459l-7.8-12.1c-0.5-0.8-1-1.4-1.8-1.4c-1,0-1.5,0.6-1.5,1.7v15.1
				c0,0.9,0.5,1.4,1.3,1.4s1.3-0.5,1.3-1.4v-12l7.8,12.2c0.6,0.9,1,1.3,1.8,1.3c0.9,0,1.4-0.6,1.4-1.7V447
				C79.8,446.1,79.2,445.5,78.4,445.5L78.4,445.5z"/>
			<path class="st0" d="M92.8,445.7h-3.6c-1.6,0-2.3,0.6-2.3,2.1v13.7c0,1.5,0.7,2.1,2.3,2.1h3.6c5.2,0,7.9-3.1,7.9-9
				S98,445.7,92.8,445.7L92.8,445.7z M98,454.7c0,4.4-1.7,6.5-5.3,6.5h-3.1v-13.1h3.1C96.3,448.1,98,450.2,98,454.7L98,454.7z"/>
			<path class="st0" d="M114.3,447c-0.4-1-0.9-1.5-1.8-1.5s-1.4,0.4-1.8,1.5l-5.3,14.8c-0.1,0.3-0.2,0.6-0.2,0.9
				c0,0.7,0.5,1.2,1.3,1.2c0.7,0,1.1-0.4,1.4-1.2l1.4-4.2h6.3l1.4,4.2c0.3,0.8,0.7,1.2,1.4,1.2c0.8,0,1.3-0.5,1.3-1.2
				c0-0.2-0.1-0.5-0.2-0.9L114.3,447L114.3,447z M114.9,456.1h-4.8l2.4-7.1L114.9,456.1z"/>
			<path class="st0" d="M150.6,447c-0.4-1-0.9-1.5-1.8-1.5s-1.4,0.4-1.8,1.5l-5.3,14.8c-0.1,0.3-0.2,0.6-0.2,0.9
				c0,0.7,0.5,1.2,1.3,1.2c0.7,0,1.1-0.4,1.4-1.2l1.4-4.2h6.3l1.4,4.2c0.3,0.8,0.7,1.2,1.4,1.2c0.8,0,1.3-0.5,1.3-1.2
				c0-0.2-0.1-0.5-0.2-0.9L150.6,447L150.6,447z M151.2,456.1h-4.8l2.4-7.1L151.2,456.1z"/>
			<path class="st0" d="M173,454.1h-4.1c-0.8,0-1.4,0.5-1.4,1.2s0.5,1.2,1.4,1.2h3.3v1.5c0,2.2-1.6,3.6-4,3.6c-3,0-4.7-2-4.7-5.5
				v-2.8c0-3.5,1.6-5.5,4.5-5.5c1.8,0,3,0.8,4,2.7c0.4,0.7,0.7,1,1.3,1c0.7,0,1.2-0.5,1.2-1.2c0-0.8-0.6-2-1.5-3c-1.2-1.3-3-2-5.1-2
				c-4.4,0-7.1,3-7.1,7.9v2.8c0,5,2.7,7.9,7.3,7.9c3.8,0,6.7-2.6,6.7-6.1v-2C174.8,454.7,174.2,454.1,173,454.1L173,454.1z"/>
			<path class="st0" d="M193.7,451.1c0-3.3-2.3-5.5-5.8-5.5h-4.2c-1.6,0-2.3,0.6-2.3,2.2v14.5c0,0.9,0.5,1.4,1.3,1.4
				s1.3-0.6,1.3-1.4v-5.7h3.9l3,5.9c0.4,0.7,0.7,1.1,1.5,1.1s1.3-0.5,1.3-1.2c0-0.3-0.1-0.7-0.2-1l-2.9-5.4
				C192.5,455.3,193.7,453.4,193.7,451.1L193.7,451.1z M191,451.2c0,2-1.2,3-3.5,3H184v-6.2h3.6C189.8,448.1,191,449.2,191,451.2
				L191,451.2z"/>
			<path class="st0" d="M201.7,445.5c-0.8,0-1.3,0.6-1.3,1.4v15.3c0,0.9,0.5,1.4,1.3,1.4s1.3-0.6,1.3-1.4V447
				C203,446.1,202.5,445.5,201.7,445.5z"/>
			<path class="st0" d="M216.7,447.7c1.8,0,3,0.8,4,2.7c0.4,0.7,0.8,1,1.4,1c0.7,0,1.2-0.5,1.2-1.2c0-0.8-0.6-2-1.5-2.9
				c-1.3-1.3-3.1-2-5.2-2c-4.4,0-7.1,3-7.1,8v2.8c0,5.1,2.6,8,7.1,8c2.1,0,3.9-0.6,5.1-1.9c0.9-0.9,1.5-2.1,1.5-3
				c0-0.7-0.5-1.2-1.2-1.2c-0.6,0-0.9,0.4-1.3,1c-0.9,1.8-2.2,2.6-4.1,2.6c-2.9,0-4.5-2-4.5-5.5v-2.8
				C212.2,449.7,213.8,447.8,216.7,447.7L216.7,447.7z"/>
			<path class="st0" d="M236.2,445.3c-4.5,0-7.2,3.1-7.2,8.1v2.6c0,5,2.7,8,7.2,8s7.2-3,7.2-8v-2.6
				C243.4,448.4,240.7,445.3,236.2,445.3z M240.8,456c0,3.4-1.8,5.5-4.6,5.5s-4.6-2.1-4.6-5.5v-2.6c0-3.5,1.8-5.7,4.6-5.7
				s4.6,2.2,4.6,5.7V456z"/>
			<path class="st0" d="M259.5,461.2h-6.9V447c0-0.9-0.5-1.4-1.3-1.4s-1.3,0.6-1.3,1.4v14.5c0,1.5,0.7,2.1,2.3,2.1h7.2
				c0.8,0,1.4-0.5,1.4-1.2S260.3,461.2,259.5,461.2z"/>
			<path class="st0" d="M279.9,461.7l-5.3-14.8c-0.4-1-0.9-1.5-1.8-1.5s-1.4,0.4-1.8,1.5l-5.3,14.8c-0.1,0.3-0.2,0.6-0.2,0.9
				c0,0.7,0.5,1.2,1.3,1.2c0.7,0,1.1-0.4,1.4-1.2l1.4-4.2h6.3l1.4,4.2c0.3,0.8,0.7,1.2,1.4,1.2c0.8,0,1.3-0.5,1.3-1.2
				C280.1,462.3,280,462.1,279.9,461.7L279.9,461.7z M275.2,456.1h-4.8l2.4-7.1L275.2,456.1L275.2,456.1z"/>
			<path class="st0" d="M130.9,451.4c-1.8,0-3.3,1.5-3.3,3.3s1.5,3.3,3.3,3.3s3.3-1.5,3.3-3.3S132.7,451.4,130.9,451.4z"/>
		</g>
	</g>
</g>
</svg>
